<svg xmlns="http://www.w3.org/2000/svg" viewBox="0 0 1024 1024" preserveAspectRatio="xMidYMid meet"><path fill="#1a1f23" d="M0 0h1024v1024H0z"/><path fill="#dddace" d="m431.969 188.797 2.295-.017q2.4-.014 4.8-.02c2.4-.01 4.8-.041 7.202-.072 16.636-.115 33.563 2.32 46.762 13.363 6.53 6.453 9.608 13.508 10.219 22.64l-.004 3.835.006 2.145c.003 2.329-.007 4.657-.018 6.985v4.958c-.001 4.392-.015 8.784-.033 13.175q-.014 4.065-.024 8.129c-.093 40.375-.093 40.375-.44 58.198a870 870 0 0 0-.08 4.846 538 538 0 0 1-.142 6.48l-.08 3.459c-.5 3.584-1.552 6.017-3.432 9.099-4.226 2.817-8.036 2.8-13 2-2.824-2.19-4.415-3.83-6-7a67 67 0 0 1-.124-4.311l-.008-2.744.006-3.02-.005-3.173a5205 5205 0 0 1-.007-6.844c-.003-4.855-.025-9.71-.045-14.563-.038-9.044-.07-18.087-.067-27.131q-.002-9.428-.062-18.855a903 903 0 0 1-.004-7.176c.009-3.36-.012-6.715-.04-10.074l.03-2.97c-.113-7.635-2.056-14.543-7.605-20.058-8.261-6.895-17.603-7.612-28.006-7.518l-3.61.025c-19.776.375-37.846 5.326-52.453 19.412-8.281 9.206-9.667 16.289-9.363 28.375.314 5.555 1.414 9.57 5.363 13.625 9.54 8.392 20.517 12.364 33.086 12.21 3.693-.266 5.943-.981 8.914-3.21a107 107 0 0 0 4-6c3.742-2.494 5.563-2.376 10-2 3.272 1.358 5.499 2.499 8 5 .652 6.777-1.303 10.532-5.062 16-5.522 6.34-13.887 10.31-22.133 11.25-16.963.873-34.12-9.891-46.805-20.25a2475 2475 0 0 1-3.937-4c-3.163-2.791-5.41-3.548-9.625-3.75-16.394 1.035-31.027 9.379-42.438 20.75l-1.933 1.863c-8.72 9.069-13.362 20.518-13.301 32.954.292 3.96 1.255 7.395 2.578 11.125C306 348 306 348 306 351l2.414.402 6.375 1.063 3.21.535 2.825.555c4.136.58 8.192.636 12.364.633.845 0 1.69 0 2.562.002 5.402-.046 10.402-.6 15.692-1.721 5.283-.968 11.55-2.093 16.46.558 2.1 2.1 3.013 4.277 3.372 7.2-.161 4.367-.882 6.334-3.836 9.648-17.65 12.07-43.74 9.116-63.571 5.879-11.77-1.862-19.344-2.063-29.535 5.129C257.747 394.82 248.266 416.733 246 438c-.785 13.163-1.504 26.56 7.188 37.375 3.249 3.383 6.884 5.892 10.894 8.3C266 485 266 485 268 488c.5 3.375.5 3.375 0 7-3.427 3.808-7.482 5.836-11.937 8.313-10.714 6.19-16.97 15.914-20.692 27.674-4.875 19.064-2.49 41.927 6.875 59.2C249.839 602.364 260.14 611.61 274 616c4.613.558 8.586.472 13-1 5.355-.345 8.639-.463 13 3 2 3 2 3 2.125 6.25-2.062 6.874-7.827 10.009-13.812 13.438-6.248 3.982-7.828 10.504-9.918 17.273-2.642 13.655 1.52 25.782 8.652 37.289 7.555 10.637 20.55 17.23 32.953 20.75 8.506 1.18 15.57-.937 22.57-5.777 8.422-6.915 12.843-15.99 17.575-25.551C366.392 669.189 373.335 659.03 387 654l1.812-.78c8.405-3.142 17.234-2.672 26.075-2.611 2.805.016 5.608 0 8.412-.02q2.7.004 5.4.013c.83-.006 1.659-.012 2.514-.02 5.323.065 9.08.87 13.787 3.418 2.51 3.453 3.01 5.354 2.938 9.625-1.028 3.699-1.883 5.106-4.938 7.375-2.884.923-5.501 1.124-8.518 1.126l-2.692.012c-1.431 0-1.431 0-2.891.003q-3.057.028-6.114.058c-3.2.029-6.397.05-9.597.052a799 799 0 0 0-9.29.077l-2.854-.021c-6.87.124-12.351 1.753-18.044 5.693-5.035 5.625-7.5 12.27-9.937 19.313-5.181 14.188-11.72 27.696-25.106 35.812-2.288 1.023-4.491 1.466-6.957 1.875 6.318 21.572 18.172 35.977 37.723 47.164 20.907 11.427 49.099 16.414 72.34 10.21 9.259-3.301 17.502-7.962 22.937-16.374 4.223-8.934 5.15-17.664 5.126-27.42l.006-2.782q.006-2.974.006-5.948c.004-4.22.025-8.438.046-12.657.038-7.846.069-15.691.067-23.536q0-8.201.062-16.403.015-3.12.004-6.24c-.01-2.908.012-5.815.04-8.723l-.031-2.593c.073-4.204.4-6.886 3.089-10.216 3.013-2.893 3.714-3.398 7.835-3.794 4.487.374 6.36 1.385 9.75 4.312 3.39 5.22 3.4 9.634 3.297 15.639l-.014 2.89c-.02 3.147-.06 6.293-.103 9.44l-.06 6.6q-.063 6.92-.156 13.839c-.077 5.879-.128 11.759-.171 17.638q-.056 6.82-.14 13.64-.035 3.25-.06 6.498c-.167 21.349-1.881 38.053-17.593 53.816l-2.09 2.16c-14.37 13.888-33.904 17.638-53.16 17.34-1.073-.01-1.073-.01-2.168-.018-11.866-.113-23.174-1.052-34.582-4.482l-2.361-.7c-18.24-5.608-34.246-14.703-47.64-28.3l-2.374-2.164C327.379 771.556 319.664 755.222 315 738l-2.062-.375c-19.106-4.065-35.398-15.096-46.657-31.062-11.125-17.71-16.567-39.598-12.281-60.313l.563-2.11c.596-2.918.835-5.165.437-8.14-2.308-2.413-2.308-2.413-5.437-4.375a642 642 0 0 1-3.328-2.344L243 627c-18.025-14.284-28.52-33.684-32.562-56.121-3.132-27.766.599-57.08 17.562-79.88l2-2c-.505-5.481-2.938-10.881-4.74-16.054-8.934-26.16-4.306-56.248 7.66-80.835 9.605-18.983 25.304-30.906 44.08-40.11l.029-2.21c.408-25.446 2.464-48.48 21.33-67.251l2.64-2.54 1.954-1.975C315.222 266.342 336.888 255 354 255l.043-1.914c.954-17.885 9.47-32.272 22.27-44.25 14.836-12.64 36.229-19.923 55.656-20.04"/><path fill="#dedacf" d="M647.743 207.349c13.02 10.648 20.497 22.848 23.257 39.65q.097 2.656.063 5.314l-.028 2.676-.035 2.01c.68.016 1.362.03 2.063.044 21.67 1.067 40.526 11.259 55.469 26.547C745.938 303.41 747.69 326.682 748 352l2.412 1.166c22.483 11.02 37.914 28.095 46.798 51.514 8.61 25.273 9.91 51.623-1.147 76.32l-1.34 2.625c-.951 2.387-.951 2.387-.082 4.883 1.469 2.694 3.14 4.963 5.047 7.367 15.636 21.198 19.048 49.109 15.996 74.787-3.01 18.51-10.756 33.813-23.684 47.338l-1.57 1.797C784.393 626.435 776.425 631.07 769 636l.657 2.473c1.919 8.168 2.645 15.944 2.656 24.34l.015 2.889c-.212 21.867-10.064 39.007-25.222 54.197-6.677 6.213-14.621 11.602-23.254 14.637-9.21 3.182-9.21 3.182-15.045 10.594-1.087 2.605-2.077 5.237-3.034 7.892-1.274 3.263-2.96 6.263-4.71 9.29l-1.01 1.753C696.859 769.47 693.084 774.25 689 779l-1.554 1.922c-17.552 21.442-47.823 35.624-75.086 38.637-24.788 2.294-49.321-.408-69.571-16.293-12.738-11.781-19.166-27.461-19.887-44.6-.044-2.468-.06-4.936-.063-7.405l-.015-2.812q-.02-4.56-.027-9.117l-.008-3.161a8286 8286 0 0 1-.03-16.536 4041 4041 0 0 0-.057-17.058c-.02-4.383-.024-8.765-.025-13.148q-.005-3.145-.024-6.291a1072 1072 0 0 1-.01-8.787l-.027-2.612c.04-5.85 1.026-10.118 5.072-14.614 3.422-1.665 6.629-1.77 10.312-1.125 4.599 2.555 6.512 6.083 8 11 .399 3.049.398 6.054.369 9.126l.012 2.688q.01 2.877-.001 5.752c-.01 3.046.002 6.09.017 9.136.04 8.656.04 17.312.039 25.968 0 5.306.019 10.61.049 15.917.01 2.98-.001 5.96-.013 8.94.028 14.774 1.463 28.408 12.458 39.403 13.76 11.744 30.956 11.89 48.07 11.07 23.585-2.047 47.63-14.067 63.407-31.687 5.082-6.524 8.009-13.497 10.593-21.313l-1.843.14c-16.66.687-34.177-5.653-46.72-16.64A185 185 0 0 1 628 721l-2.02-2.031c-8.165-8.664-10.468-18.13-10.257-29.75.508-11.221 5.773-21.13 13.777-28.844 11.655-9.633 25.566-13.668 40.5-12.375 4.685 1.235 7.262 3.188 10.5 6.75 2 4.333 2.179 6.503 1.5 11.25-2.125 3-2.125 3-5 5-3.29.48-5.264.318-8.312-1-3.933-1.463-7.542-1.58-11.688-1-7.01 3.437-12.05 9.86-15 17-2.053 7.28-1.221 13.039 2.317 19.633 2.83 3.979 6.412 6.132 10.683 8.367l3.313 1.75c19.024 6.449 40.295 2.928 58.062-5.77 14.76-7.774 24.297-18.792 30.625-33.98 2.849-10.367 1.939-22.5-3-32-3.514-5.821-8.018-7.766-14.16-10.507-2.928-1.54-4.767-2.925-6.84-5.493-.8-5.037-.8-5.037 0-8 2.187-2.72 4.88-4.44 8-6 3.234-.122 6.235-.153 9.414.485 10.462 2.086 18.71-.514 27.805-5.766 9.758-6.66 16.335-16.966 20.78-27.72l.817-1.962c2.357-6.232 2.65-11.98 2.559-18.6-.01-1.054-.02-2.11-.028-3.196-.333-17.406-3.95-36.613-15.933-50.014-3.245-3.001-6.603-4.866-10.601-6.727-4.391-2.101-6.861-3.852-8.813-8.5-.074-4.261.425-6.267 3.063-9.625 2.333-1.886 4.353-3.188 6.937-4.625 6.733-4.108 8.876-10.576 10.813-17.937 4.049-19.967-.696-43.568-10.977-61.13C759.193 387.513 747.619 376.118 734 373c-4.71-.163-9.414.052-14.121.254-7.26.167-7.26.167-10.465-2.011-1.895-3.005-2.814-5.062-3.113-8.614 1.348-5.068 5.99-8.328 9.727-11.801 5.902-5.504 7.18-9.952 7.535-18.015-.387-12.562-5.2-21.69-13.563-30.813l-1.648-1.925c-8.874-9.762-22.057-15.63-35.117-16.454a304 304 0 0 0-5.047-.121l-2.39-.056c-9.591.104-15.72 4.802-22.532 11.197-8.377 8.723-10.412 19.224-12.324 30.809-1.383 5.214-3.447 8.554-7.942 11.55-3.066.546-5.931.529-9 0-4.794-3.57-6.412-7.238-7.625-12.937-1.428-12.423-.99-25.037 6.5-35.563 5.663-6.738 12.206-10.532 20.25-13.75 5.41-3.292 8.98-8.748 10.875-14.75.984-8.805 1.105-16.498-4.23-23.957C627.014 221.316 605.905 214.697 587 213c-12.517-.858-24.211-.904-34.375 7.395-5.1 5.038-5.65 11.484-5.756 18.31q-.012 2.805-.011 5.612l-.01 3.106q-.011 3.33-.016 6.659-.013 5.271-.042 10.542c-.052 9.988-.1 19.977-.116 29.965-.01 6.115-.04 12.23-.081 18.344q-.018 3.493-.015 6.986c.002 3.255-.02 6.51-.048 9.765l.02 2.91c-.096 6.92-1.513 10.265-6.362 15.28-3.302 1.699-5.526 1.63-9.188 1.126-4.83-3.1-6.671-5.494-8-11-.292-3.75-.293-7.487-.29-11.246l-.021-3.408c-.02-3.713-.022-7.426-.025-11.14l-.02-7.763a6310 6310 0 0 1-.014-16.28q-.002-9.37-.052-18.744c-.03-6.034-.036-12.07-.035-18.103q-.003-3.834-.027-7.668c-.02-3.585-.014-7.17-.002-10.754l-.034-3.167c.08-9.565 2.596-18.422 8.692-25.95 3.473-3.376 7.568-5.54 11.828-7.777l1.86-1.117c29.394-16.778 76.998-7.566 102.883 12.466"/><path fill="#dedbcf" d="M367 414c63.127 0 63.127 0 75.031 10.852 12.821 13.635 13.135 33.845 13.102 51.523l.003 3.525q0 3.687-.006 7.372-.005 5.493.007 10.986c.004 12.162-.142 24.309-.567 36.465l-.111 3.323c-.567 14.528-1.832 31.203-12.147 42.392C422.686 598.249 389.921 592 367 592z"/><path fill="#dedacf" d="M578 414h26c1.663 12.303 3.193 24.602 4.516 36.946 1.799 16.737 3.907 33.428 6.109 50.116l.461 3.513q.66 5.012 1.328 10.023l.394 2.995c.876 6.507 1.964 12.956 3.192 19.407 4.557-27.634 8.834-55.305 13-83l.446-2.967Q636.232 432.517 639 414h24l.93 6.788q1.556 11.346 3.114 22.691l1.879 13.701c2.585 18.866 5.187 37.73 7.878 56.582l.319 2.243.893 6.236.507 3.534A455 455 0 0 0 680 535a2728 2728 0 0 0 7.555-49.176q.764-5.28 1.533-10.56a4286 4286 0 0 0 4.584-32.291l.357-2.585c1.195-8.776 2.09-17.575 2.971-26.388h24c-3.258 21.282-6.542 42.559-9.914 63.823l-.387 2.439-.395 2.493q-1.46 9.221-2.903 18.446c-7.374 47.075-7.374 47.075-10.839 67.299l-.362 2.125A441 441 0 0 1 692 592h-24c-2.774-13.506-5.245-27.004-7.375-40.625l-.443-2.81a3626 3626 0 0 1-6.219-40.947q-.396-2.714-.799-5.427c-1.298-8.779-2.537-17.29-2.164-26.191h-2l.079 1.689c.195 7.686-.99 14.947-2.329 22.499l-.621 3.615q-.667 3.875-1.348 7.748-.85 4.83-1.681 9.662a3658 3658 0 0 1-7.192 40.237q-.91 4.951-1.816 9.904l-1.166 6.345-.543 2.967-.507 2.747-.441 2.401c-.413 2.076-.922 4.132-1.435 6.186h-25c-2.25-7.876-2.25-7.876-2.803-11.489l-.388-2.496-.403-2.683-.447-2.905q-.735-4.806-1.459-9.615l-1.049-6.877c-3.341-21.97-6.57-43.956-9.786-65.944l-1.255-8.573-.31-2.117a7611 7611 0 0 0-4.291-28.938l-.507-3.377q-1.156-7.692-2.322-15.382l-.8-5.323-.368-2.398c-.501-3.353-.812-6.482-.812-9.883"/><path fill="#dedbcf" d="M549.844 419.277c6.566 5.246 9.469 11.616 11.156 19.723.325 4.056.288 8.06.188 12.125L561 462h-22l-.312-6c-.542-6.814-1.097-12.41-6.125-17.438-5.427-3.309-11.367-3.039-17.563-2.562-4.105 1.27-5.61 2.538-8.375 5.812-3.498 6.91-2.403 16.156-.562 23.438 3.798 10.86 12.2 18.781 20.937 25.812 16.257 13.145 33.018 27.383 37 48.938 1.553 14.753.038 29.764-9 42-6.774 7.258-15.758 11.433-25.64 12.206-2.914.098-5.82.116-8.735.106l-2.961.05c-11.988.007-21.461-3.542-30.414-11.487-10.226-10.762-9.485-28.09-9.25-41.875h24c.813 8.562.813 8.562 1.046 11.217.648 6.27 1.72 11.607 6.392 16.158 5.379 3.411 11.365 3.107 17.562 2.625 3.882-.889 6.396-2.214 8.875-5.438 3.516-8.007 2.954-16.942.149-25.1-5.388-12.957-15.467-21.565-26.2-30.154C493.397 496.88 480.554 483.842 478 462c-.815-12.808-.475-25.609 8-36 6.243-7 13.13-10.234 22-13l1.89-.614c13.266-2.432 28.655-.574 39.954 6.891"/><path fill="#191d22" d="M392 438c25.804 0 25.804 0 31 4 6.018 6.656 6.149 14.18 6.161 22.737a1948 1948 0 0 1 .042 11.079l.009 2.943q.022 7.716.028 15.432c.006 5.283.03 10.566.058 15.849.019 4.088.024 8.176.026 12.264q.005 2.918.024 5.837c.168 26.664.168 26.664-5.598 34.484C414.467 570.642 403.938 569 392 569z"/><path fill="#dfdcd0" d="M312 414h25v178h-25z"/><path fill="#edede7" d="m509 475 3 1-1 2zm3 3c7.483 6.15 7.483 6.15 10 10-4.136-1.591-7.232-4.605-10-8zm10 10 3 1-1 2zm3 3c4.559 1.243 6.939 3.748 10.098 7.059 2.565 2.618 5.322 4.98 8.105 7.363A86 86 0 0 1 548 510l-1 2-1.582-1.652c-5.093-5.218-10.397-9.901-16.133-14.403C527 494 527 494 525 491m24 22h2l-1 2zm2 2c3.259 3.083 6.066 5.916 8 10l-1 3q-1.474-2.404-2.938-4.812l-1.652-2.708C552 518 552 518 551 515"/><path fill="#101112" d="m767 692 1 2c-4.827 11.156-12.337 19.683-21 28l-2-1 1.871-1.695c7.134-6.754 12.12-13.916 17.129-22.305l1.754-2.918zm-24 30 2 1a90 90 0 0 1-4 4h-2v-2c2-1.625 2-1.625 4-3m-6 5 2 1Zm-2 1 2 1-2 1z"/><path fill="#e9e8e0" d="M261 361c0 3 0 3-1.328 4.402l-1.922 1.536c-3.837 3.22-7.445 6.599-11 10.124l-1.536 1.498c-3.251 3.241-5.783 6.545-8.214 10.44l-1-2c3.795-6.039 8.038-11.338 13.062-16.375l1.498-1.513c3.261-3.201 6.591-5.698 10.44-8.112"/><path fill="#efede4" d="M578 414h26v11h-1v-9h-23v5c-2-3-2-3-2-7"/><path fill="#e6e4dc" d="M697 414h24l-1 5-1-3h-20l-1 11h-1z"/><path fill="#e0ded6" d="M312 414h25l-1 8h-1v-6l-1.896.032c-2.826.041-5.653.067-8.479.093l-2.984.051-2.852.019-2.634.032C314 416 314 416 312 414"/><path fill="#e9e8e3" d="m509 475 3 1-1 2zm3 3c7.483 6.15 7.483 6.15 10 10-4.136-1.591-7.232-4.605-10-8zm10 10 3 1-1 2zm3 3c3.914 1.269 5.791 2.512 8 6-3.914-1.269-5.791-2.512-8-6"/><path fill="#0d0e0f" d="m298 616 4 2-1 2zm4 4h1c.125 3.375.125 3.375 0 7l-2 2zm-3 9h2l-1 3h-2zm-3 3 2 1-5 3 1-3z"/><path fill="#060707" d="M682 516h1v6h-1zm-1 6h1c.097 6.115-.23 11.933-1 18h-1c-.982-4.053-1.082-7.839-1-12h2z"/><path fill="#0b0c0c" d="M617 518h1v6h-1zm1 6h1l1 5h1c.286 8.571.286 8.571-2 12-.832-5.72-1.12-11.222-1-17"/><path fill="#0a0b0c" d="M301 734c2.296.369 4.587.771 6.875 1.188l3.867.667C315 737 315 737 316.469 739.469c.551 2.625.453 4.04-.469 6.531l-.621-2.859c-1.076-3.361-1.076-3.361-4.164-4.532l-3.277-.859A127 127 0 0 1 302 736z"/><path fill="#151514" d="M649 476h2c.081 2.104.139 4.208.188 6.312l.105 3.551C651 489 651 489 648 492z"/><path fill="#292c2d" d="M569 212h18l-4 1v2l-14-2z"/><path fill="#edece5" d="m697 414 9 1v1h-7l-1 11h-1z"/><path fill="#232527" d="M774 633c-1.75 3.875-1.75 3.875-4 5l-2-2c3.75-3 3.75-3 6-3"/><path fill="#e9e8e2" d="m578 414 4 1-2 6c-2-3-2-3-2-7"/><path fill="#1f2121" d="M677 742h4v3l-4-2z"/><path fill="#222628" d="M236 526h3l-1 5c-2-3-2-3-2-5"/></svg>